<svg version="1.2" xmlns="http://www.w3.org/2000/svg" viewBox="0 0 848 1064" width="341" height="428">
	<title>Motion_cartoon-53-ai</title>
	<style>
		.s0 { fill: #e6e6e6 } 
		.s1 { fill: #3b6a82 } 
		.s2 { fill: #2e6175 } 
		.s3 { fill: #1f404d } 
		.s4 { fill: #f6e2d7 } 
		.s5 { fill: #efd3c5 } 
		.s6 { fill: #8cc63f } 
		.s7 { fill: #81b530 } 
		.s8 { fill: #f27272 } 
		.s9 { fill: #f9c5c5 } 
		.s10 { fill: #c5fff9 } 
		.s11 { fill: #f9ddd2 } 
		.s12 { fill: #fce9e0 } 
		.s13 { fill: #f9b9b9 } 
		.s14 { fill: #efa29a } 
		.s15 { fill: #ffffff } 
		.s16 { fill: #fbb03b } 
		.s17 { fill: #f9eec0 } 
		.s18 { fill: #ffde83 } 
		.s19 { fill: #f9d373 } 
		.s20 { fill: #5ae0cd } 
	</style>
	<g id="Layer 1">
		<g id="&lt;Group&gt;">
			<g id="&lt;Group&gt;">
				<g id="&lt;Group&gt;">
					<ellipse id="&lt;Path&gt;" class="s0" cx="435.1" cy="964.5" rx="257.8" ry="54.1"/>
				</g>
				<g id="&lt;Group&gt;">
					<g id="&lt;Group&gt;">
						<path id="&lt;Path&gt;" class="s1" d="m723.4 599.5c-6.3 27.2-28.8 50.5-56.9 59.1-28.1 8.6-56.7-0.6-78.8-19.2-7.8 26.4-30.6 48.7-58.8 55.4-28.1 6.7-59.5-7.3-76.6-29.4-7.8 16.3-25.7 27.2-44.4 30.1-18.7 2.9-38.1-1.5-55.1-9.5-12.2-5.8-20.5-16.3-24.6-28.5-18.3 14.8-53.3 21.9-88.4 10.9-28.2-8.8-38.4-42.9-37.1-47.9-10.4 6.6-23.3 9.5-35.7 8-12.4-1.4-24.2-7.2-32.6-16-4.7-4.9-5.9-10.9-6.2-17.6 12.5 4.9 27.6 1.3 38-6.8q2.4-1.9 4.5-4c7.8-7.9 12.7-18.2 15.3-28.7 3.1-12.5 3.4-25.4 3.6-38.2q0.4-27.6 0.8-55.2c0.7-39.3-7.7-78 7.1-114.7 5.5-13.4 12.6-26.3 22.8-36.9 11.2-11.6 25.6-20 40.3-27.3 36.9-18.4 76.9-31.2 118.1-37.8 17.4-2.7 35.2-4.4 52.8-2.9 25 2.1 49 10.4 72 19.8 29.2 11.8 57.9 25.6 81.8 45.2 23.9 19.7 49.6 43.5 54.7 73.1q14.6 85.6 29.3 171.2 0.7 4 1.3 8c2.4 13.9 5.8 29.4 18.1 37.5 8.9 5.9 24.1 4.8 34.7 2.3z"/>
					</g>
					<g id="&lt;Group&gt;">
						<path id="&lt;Path&gt;" class="s2" d="m606.5 571.9c-5.8 18.2 2.4 39.8 18.7 49.7-13.6-0.7-27.1-5.9-37.8-14.4-4.2-3.4-5.3-9.4-7.2-14.5-4.8 8.9-10 17.8-16.9 25.2-6.9 7.5-15.7 13.5-25.7 15.4-5.7 1.1-13.7-0.9-16.6-6-10.7 9.6-24.6 14.9-38.5 18.7-76.5 21.1-162.9 2.3-223.8-48.6-6.4-5.4-12.6-11.1-16.9-18.2q-16.4 9.7-32.7 19.3c3.2-12.5 4.7-25.4 4.3-38.4-12.8 10.3-27.3 18.4-42.7 24 7.8-7.9 12.7-18.2 15.3-28.7 3.1-12.5 3.4-25.4 3.6-38.2q0.4-27.6 0.8-55.2c0.7-39.3-7.7-78 7.1-114.7 5.5-13.4 12.6-26.3 22.8-36.9 11.2-11.6 25.6-20 40.3-27.3 36.9-18.4 76.9-31.2 118.1-37.8 17.4-2.7 35.2-4.4 52.8-2.9 25 2.1 49 10.4 72 19.8 29.2 11.8 57.9 25.6 81.8 45.2 23.9 19.7 49.6 43.5 54.7 73.1q14.6 85.6 29.3 171.2-2.3 4.4-4.3 8.9c-2.8 6.3-5.1 12.9-5.5 19.8-0.3 6.9 1.6 14.2 6.3 19.2-21.7-2.3-43.5-12.7-59.3-27.7z"/>
					</g>
					<g id="&lt;Group&gt;">
						<path id="&lt;Compound Path&gt;" fill-rule="evenodd" class="s3" d="m514.3 699.6c-22.4 0-45.7-10.7-61.5-28.7-8.7 14.3-25.3 24.7-44.4 27.7-22.6 3.4-43.4-3.4-56.9-9.8-11.1-5.2-19.7-14.5-24.8-26.4-18.5 12.9-51.7 20.3-87.8 9-24.4-7.7-36.5-33.2-38.9-45.8-10.1 5.2-22 7.3-33.4 6-13-1.5-25.6-7.7-34.4-16.9-5.7-6-6.8-13.3-7.1-19.6-0.1-1 0.4-2 1.2-2.7 0.9-0.6 2-0.7 3-0.4 10.7 4.2 24.8 1.6 35-6.4 11.3-8.8 16.4-21.7 18.7-31 3.1-12.2 3.3-25 3.5-37.4l0.8-55.3c0.2-10.9-0.3-21.9-0.8-32.6-1.4-27.6-2.8-56.1 8.2-83.1 6.3-15.8 14-28.2 23.4-38 12.1-12.5 27.6-21.1 41.1-27.9 37.3-18.6 77.4-31.4 119.1-38 20.9-3.4 37.9-4.3 53.4-3 26.2 2.2 50.6 10.9 73 20 24.7 10 56.4 24.3 82.6 45.7 25.9 21.3 50.6 45.2 55.7 74.9l30.7 179.3c2.4 13.9 5.6 28.1 16.7 35.4 8 5.2 22.3 4.3 32.2 1.9 1.1-0.3 2.2 0 3 0.8 0.7 0.7 1 1.8 0.8 2.9-6.6 28.3-29.7 52.4-59 61.4-25.8 7.9-54.1 1.7-78.1-16.9-9.4 26-32.4 46.6-59.7 53.1-5 1.2-10.1 1.8-15.3 1.8zm-62-37.3c0.9 0 1.8 0.5 2.4 1.2 17.7 22.7 47.9 34.4 73.5 28.3 26.7-6.4 48.9-27.3 56.5-53.3 0.3-1 1.1-1.7 2.1-2 1-0.3 2.1-0.1 2.9 0.5 23.2 19.5 50.8 26.3 75.9 18.7 25.5-7.8 46-28 53.5-52.2-10.9 1.9-23.8 1.7-32.1-3.7-13.2-8.6-16.8-24.3-19.4-39.6l-30.7-179.2c-4.7-27.8-28.5-50.6-53.6-71.2-25.5-20.9-56.6-34.9-80.9-44.7-22-9-45.9-17.5-71.2-19.6-15-1.3-31.5-0.4-52 2.9-41 6.5-80.5 19.1-117.2 37.5-13.1 6.5-28 14.8-39.4 26.6-8.8 9.2-16.1 21-22.2 36-10.4 25.7-9.1 52.3-7.7 80.5 0.5 10.8 1 21.9 0.8 33l-0.8 55.3c-0.2 12.7-0.4 26-3.6 38.8-2.6 10.3-8.3 24.5-21 34.4-10.6 8.3-24.4 11.6-36.4 8.8 0.6 3.9 1.9 7.8 5 11.1 7.8 8.2 19 13.7 30.7 15 11.6 1.4 23.9-1.3 33.7-7.5 1.1-0.7 2.4-0.6 3.5 0.1 1 0.8 1.5 2.1 1.1 3.3-0.8 4.7 9.5 36.1 35 44.1 36.1 11.4 69.6 2.6 85.5-10.3 0.8-0.7 1.9-0.9 2.8-0.6 1 0.3 1.8 1 2.1 2 4.2 12.1 12.3 21.6 23 26.7 12.8 6 32.3 12.5 53.3 9.2 19-2.9 35.1-13.7 42.1-28.3 0.4-1 1.4-1.6 2.4-1.8q0.2 0 0.4 0z"/>
					</g>
				</g>
				<g id="&lt;Group&gt;">
					<g id="&lt;Group&gt;">
						<g id="&lt;Group&gt;">
							<g id="&lt;Group&gt;">
								<path id="&lt;Path&gt;" class="s4" d="m450.6 898.6c-5-16.1-8.7-32.6-11.9-49.7 16.6-10.2 34.2-14.8 53.6-14.3 4 16.6 6.7 33.6 8.1 50.6 1 13.5 1.3 27.1 0.6 40.7q0.1 0.1 0 0.3-1.3 0.6-2.7 1.1c-8.9 3.5-17.2 4.7-26.5 4.9q-4.1 0-8.6-0.2-0.2-0.6-0.5-1.2c-4.8-10.6-8.8-21.3-12.1-32.2z"/>
							</g>
							<g id="&lt;Group&gt;">
								<path id="&lt;Path&gt;" class="s5" d="m438.7 848.9c16.6-10.2 34.2-14.8 53.6-14.3 4 16.6 6.7 33.6 8.1 50.6-16.3 1.8-32.3 5.9-47.3 12.4q-1.3 0.5-2.5 1c-5-16.1-8.7-32.6-11.9-49.7z"/>
							</g>
							<g id="&lt;Group&gt;">
								<path id="&lt;Compound Path&gt;" fill-rule="evenodd" class="s3" d="m470.1 935.6q-3.4 0-7-0.1c-1.3-0.1-2.4-0.8-3-2-13.5-29.4-20.1-58.9-24.8-83.9-0.2-1.4 0.4-2.8 1.6-3.6 17-10.5 35.2-15.3 55.5-14.8 1.6 0 2.9 1.1 3.3 2.6 7.2 30.3 10.2 61.4 8.8 92.5-0.1 1.3-0.9 2.5-2.1 3-11.1 4.9-21.1 6.3-32.3 6.3zm-4.6-6.9c11.7 0.3 21.4-0.5 32.2-4.9 1.1-28.8-1.6-57.7-8.1-85.8-17.1 0-32.5 4.2-47.1 12.7 4.5 23.5 10.8 50.8 23 78z"/>
							</g>
							<g id="&lt;Group&gt;">
								<path id="&lt;Path&gt;" class="s6" d="m506 898.7q0.9 7-1.1 39.4 11.5 2.2 16.9 6.6c1.9 1.5 2.4 3.2 2.8 5.2 2.1 11.8-33.8 18.2-43.7 18.2-9.9-0.1-12-14.3-20.8-25.5q-0.1-0.1-0.2-0.3c-2.2-3.4-11-31.9-13-37.8 14.3 4.4 40.8 2.5 59.1-5.8z"/>
							</g>
							<g id="&lt;Group&gt;">
								<path id="&lt;Path&gt;" class="s7" d="m480.7 956.1c8.4 1.9 16.4 0.9 24.7-1.5 9.5-2.7 12.1-6.8 16.4-9.9 1.9 1.5 2.4 3.2 2.8 5.2 2.1 11.8-19.9 16.5-29.8 17.6-13.7 1.5-28 0.1-34.7-24.9 7.4 6.9 13.3 11.9 20.6 13.5z"/>
							</g>
							<g id="&lt;Group&gt;">
								<path id="&lt;Compound Path&gt;" fill-rule="evenodd" class="s3" d="m487 972.4c-2.9 0-5.5-0.3-7.9-0.8-11.2-2.6-16.3-14.1-21.4-27.8-1.7-3.2-5.4-14.3-11.1-32.2-0.9-2.7-1.5-4.8-1.9-6.1-0.4-1.2-0.1-2.5 0.8-3.4 0.9-1 2.2-1.3 3.5-0.9 12.6 3.9 38.4 2.6 56.5-5.6 1-0.5 2.2-0.4 3.2 0.1 0.9 0.5 1.6 1.5 1.7 2.6 0.7 6.1-0.5 29.8-0.9 37.5 6.7 3 19.8 9.9 19.2 18.4-0.1 2.6-1.8 5.2-5 7.6-7.6 5.6-24 10.6-36.7 10.6zm-33.9-63.2q0 0.2 0.1 0.4c2.4 7.7 9 28.4 10.5 30.8 0.2 0.2 0.3 0.5 0.4 0.7 4.4 11.9 8.6 22 16.6 23.8 10.4 2.4 30.5-2.7 38.5-8.4 2.1-1.5 2.6-2.5 2.7-2.8 0.2-3.2-9-9.1-17.3-12.5-1.4-0.5-2.2-1.9-2.1-3.4 0.4-7.2 1.3-24.9 1.2-34-15.5 5.8-36 7.9-50.6 5.4z"/>
							</g>
						</g>
					</g>
					<g id="&lt;Group&gt;">
						<g id="&lt;Group&gt;">
							<g id="&lt;Group&gt;">
								<path id="&lt;Path&gt;" class="s4" d="m405.4 930.6q-0.3 0.7-0.6 1.3-4.4 0.2-8.5 0.2c-9.3-0.1-17.6-1.3-26.6-4.8q-1.3-0.5-2.7-1.1 0-0.1 0-0.3c-0.7-13.5-0.5-27.1 0.5-40.6 1.2-17.1 3.8-34 7.7-50.7 19.5-0.5 37.1 4 53.7 14.1-3.1 17.1-6.7 33.6-11.6 49.7-3.3 10.9-7.1 21.6-11.9 32.2z"/>
							</g>
							<g id="&lt;Group&gt;">
								<path id="&lt;Path&gt;" class="s5" d="m417.3 898.4q-1.2-0.5-2.5-1.1c-15-6.3-31.1-10.4-47.3-12 1.2-17.1 3.8-34 7.7-50.7 19.5-0.5 37.1 4 53.7 14.1-3.1 17.1-6.7 33.6-11.6 49.7z"/>
							</g>
							<g id="&lt;Group&gt;">
								<path id="&lt;Compound Path&gt;" fill-rule="evenodd" class="s3" d="m397.3 935.5c-11 0-20.7-1.4-31.7-6.1-1.2-0.6-2-1.7-2-3-1.6-31.1 1.2-62.3 8.3-92.6 0.3-1.5 1.6-2.6 3.2-2.6 20.3-0.6 38.5 4.1 55.6 14.5 1.2 0.8 1.9 2.2 1.6 3.6-4.6 25-11 54.6-24.3 84-0.6 1.2-1.7 2-3 2q-4 0.2-7.7 0.2zm-26.9-11.6c10.7 4.3 20.5 5 32.2 4.6 12-27.2 18.1-54.5 22.5-78.1-14.5-8.3-29.8-12.4-46.7-12.4q-0.2 0-0.4 0c-6.4 28.2-8.9 57-7.6 85.9zm34.4 8h0.1z"/>
							</g>
							<g id="&lt;Group&gt;">
								<path id="&lt;Path&gt;" class="s6" d="m421 904.2c-1.9 5.9-10.6 34.5-12.7 37.9q-0.1 0.2-0.3 0.4c-8.7 11.2-10.7 25.4-20.6 25.5-9.9 0.1-45.9-6.1-43.8-17.9 0.4-2 0.9-3.8 2.7-5.3q5.4-4.4 16.9-6.7-2.1-32.3-1.3-39.3c18.3 8.2 44.9 10 59.1 5.4z"/>
							</g>
							<g id="&lt;Group&gt;">
								<path id="&lt;Path&gt;" class="s7" d="m408 942.5c-6.5 25-20.8 26.5-34.5 25.1-9.9-1.1-32-5.7-29.9-17.5 0.4-2 0.9-3.8 2.7-5.3 4.3 3.1 7 7.2 16.5 9.9 8.3 2.3 16.3 3.3 24.7 1.3 7.3-1.6 13.2-6.6 20.5-13.5z"/>
							</g>
							<g id="&lt;Group&gt;">
								<path id="&lt;Compound Path&gt;" fill-rule="evenodd" class="s3" d="m381.1 972.4c-12.8 0-29-4.9-36.5-10.5-3.2-2.3-4.9-4.9-5.1-7.5-0.6-8.5 12.5-15.5 19.1-18.5-0.4-7.7-1.8-31.3-1.1-37.5 0.1-1.1 0.8-2.1 1.7-2.6 1-0.5 2.1-0.6 3.1-0.1 18.3 8.1 44 9.3 56.7 5.2 1.2-0.3 2.5 0 3.5 0.9 0.9 0.9 1.2 2.3 0.8 3.5-0.4 1.2-1.1 3.4-1.9 6.1-5.6 17.8-9.2 29-11 32.2-4.8 13.2-10 25.3-21.2 27.9-2.4 0.6-5.2 0.9-8.1 0.9zm-16.9-68.6c0 9.2 1 26.8 1.5 34.1 0.1 1.5-0.8 2.9-2.2 3.4-8.3 3.4-17.4 9.4-17.2 12.6 0.1 0.3 0.6 1.3 2.8 2.8 8 5.6 28.1 10.6 38.5 8.1 7.9-1.8 12.1-11.9 16.5-23.8q0.1-0.4 0.3-0.7c1.5-2.5 8-23.2 10.4-31q0-0.1 0.1-0.3c-14.6 2.6-35.1 0.6-50.7-5.2z"/>
							</g>
						</g>
					</g>
				</g>
				<g id="&lt;Group&gt;">
					<g id="&lt;Group&gt;">
						<path id="&lt;Path&gt;" class="s8" d="m475.7 641.8v71.6c-3.5-0.5-8.9-0.8-15.3-1-11.3-0.3-25.8-0.2-39.1 0.2-10.6 0.4-20.5 1-27.5 1.8v-74.9q4.6-1.9 9.4-3.5 2.4-0.8 4.8-1.4 1.2-0.4 2.4-0.7 1.2-0.3 2.4-0.5 1.8-0.4 3.6-0.8 1.8-0.3 3.7-0.6 0.1 0 0.2 0 2.4-0.4 4.8-0.6 3.8-0.3 7.5-0.3 2.4 0 4.8 0.1 0.5 0.1 1 0.1 1 0.1 2 0.2 0.4 0 0.9 0 1 0.1 2.1 0.3 1 0.1 2.1 0.3 0.6 0 1.3 0.2 1 0.1 2 0.3 0.8 0.2 1.7 0.3 0.2 0.1 0.5 0.2 0.5 0.1 1 0.2 0.2 0 0.4 0.1 0.5 0.1 1 0.2 0.9 0.2 1.7 0.4 7.2 1.9 14 4.8 0.5 0.2 1 0.4 0.6 0.3 1.1 0.5 0.7 0.3 1.5 0.7 0.7 0.3 1.5 0.7 0.7 0.3 1.4 0.7 0.1 0 0.1 0z"/>
					</g>
					<g id="&lt;Group&gt;">
						<g id="&lt;Group&gt;">
							<path id="&lt;Path&gt;" class="s9" d="m435.7 656.6c13.4-0.5 26.7-1.5 40-2.8v5.9c-13.3 1.3-26.6 2.3-40 2.8-14 0.4-27.9 0.4-41.9-0.3v-5.9q0.2 0 0.4 0c13.8 0.7 27.6 0.7 41.5 0.3z"/>
						</g>
						<g id="&lt;Group&gt;">
							<path id="&lt;Path&gt;" class="s9" d="m393.8 693.8c27.3 2 54.7 2.3 81.9 2.3v6.1c-20.9 0.2-41.9-0.6-62.7-1.5q-5.2-0.2-10.5-0.5-4.3-0.2-8.7-0.5z"/>
						</g>
						<g id="&lt;Group&gt;">
							<path id="&lt;Path&gt;" class="s9" d="m475.7 673v5.9c-12.6-0.1-25.3 0.1-38 0.6-14.6 0.4-29.2 0.2-43.9-0.3v-5.9c15.3 0.5 30.5 0.7 45.8 0.2q18.1-0.7 36.1-0.5z"/>
						</g>
					</g>
					<g id="&lt;Group&gt;">
						<path id="&lt;Path&gt;" class="s3" d="m482.7 649q-0.9 0-1.7-0.5c-15.9-9.3-32.2-14-48.4-14-15.5 0-31.6 4.4-48 13.2-1.7 0.9-3.7 0.3-4.6-1.4-0.8-1.6-0.2-3.6 1.4-4.5 17.4-9.3 34.6-14.1 51.2-14.1 17.4 0 34.8 5.1 51.8 15 1.6 1 2.2 3 1.2 4.6-0.6 1.1-1.7 1.7-2.9 1.7z"/>
					</g>
				</g>
				<g id="&lt;Group&gt;">
					<path id="&lt;Path&gt;" class="s10" d="m484.2 711.4c1.7 19.1 22.5 122.1 26 163.5q-127.4 27.5-152.2 0c-4.6-5 19.6-140.9 24-161.7 2.1-10.3 1.9-67.8 2.5-69.8 0.9-3.1 6.4-6.5 9.3-8.3 3 18.5 3.4 37.5 5.1 56.9 23.1-1.1 46.3 0.5 69.4 1.9 1.4-19.8 3.3-37.9 5.6-56.8 4.6 2.1 7.8 2.9 8.7 8 0.8 4.9 0.2 51.1 1.6 66.3z"/>
				</g>
				<g id="&lt;Group&gt;">
					<path id="&lt;Compound Path&gt;" fill-rule="evenodd" class="s3" d="m413.5 891.8c-24.7 0-48.1-3.4-58-14.6-1.6-1.8-3.7-4.2 8-77.6 6.1-38 13-77 15.2-87.1 1.3-6.4 1.7-33.3 2-51.1 0.2-15.8 0.3-18 0.6-19 1.1-3.8 5.7-7 10.3-9.9l0.4-0.3c1-0.6 2.2-0.7 3.2-0.2 1 0.5 1.7 1.4 1.9 2.5 2.1 12.7 2.9 25.8 3.8 38.5 0.3 5 0.7 10.3 1.1 15.5 20.4-0.7 41 0.5 61 1.7l2.2 0.1c1.2-16.3 2.9-33 5.4-53.6 0.1-1 0.7-2 1.6-2.5 1-0.5 2.1-0.6 3.1-0.1q0.6 0.2 1.2 0.5c4.1 1.8 8.3 3.6 9.4 9.9 0.4 2.4 0.5 10.8 0.6 25.4 0.1 14.7 0.3 32.9 1 41.2 0.6 6.6 4.7 28 9.3 52.9 4.4 23.1 9.3 49.4 12.8 70.6 5.7 34.7 4.9 39.8 3.5 42-0.7 1.3-1.8 3.2-21.5 7.1-7.5 1.5-23 4.3-42.7 6.2-11.2 1.1-23.5 1.9-35.4 1.9zm-52.5-18.6c9.6 10.1 37.4 13.9 78.4 10.8 33.6-2.6 62.5-8.8 67.9-11.2 1.4-9.4-10.1-70.6-17.1-107.6-4.9-26-8.7-46.6-9.4-53.5-0.7-8.6-0.9-26.2-1-41.7-0.1-11-0.2-22.4-0.5-24.4-0.4-1.8-1-2.6-2.6-3.5-2.3 19.8-3.9 36-5 52-0.2 1.8-1.8 3.2-3.6 3.1l-5.5-0.3c-20.9-1.3-42.5-2.5-63.5-1.6-1.8 0.1-3.4-1.3-3.5-3.1-0.6-6.3-1-12.6-1.4-18.8-0.8-11.2-1.5-22-2.9-32.6-1.6 1.2-3.1 2.5-3.5 3.4-0.2 1.6-0.3 9.6-0.4 17.3-0.3 19.1-0.7 45.4-2.1 52.4-5.2 24.2-26.1 147.4-24.3 159.3z"/>
				</g>
				<g id="&lt;Group&gt;">
					<g id="&lt;Group&gt;">
						<g id="&lt;Group&gt;">
							<path id="&lt;Path&gt;" class="s11" d="m472.7 582.4c0 35.8-17 88.4-38 88.4-21 0-38-52.6-38-88.4 0-35.9 17-41.4 38-41.4 21 0 38 5.5 38 41.4z"/>
						</g>
						<g id="&lt;Group&gt;">
							<path id="&lt;Compound Path&gt;" fill-rule="evenodd" class="s3" d="m434.7 674.3c-24.1 0-41.5-54.9-41.5-91.9 0-39.6 21-45 41.5-45 20.5 0 41.5 5.4 41.5 45 0 37-17.4 91.9-41.5 91.9zm0-129.8c-17.4 0-34.4 2.9-34.4 37.9 0 36.3 17 84.9 34.4 84.9 17.4 0 34.5-48.6 34.5-84.9 0-35-17.1-37.9-34.5-37.9z"/>
						</g>
					</g>
					<g id="&lt;Group&gt;">
						<g id="&lt;Group&gt;">
							<g id="&lt;Group&gt;">
								<path id="&lt;Path&gt;" class="s4" d="m595.5 446.1c8.3-8.9 21.5-14.9 35.5-16.1 14-1.2 28.6 2.5 39.1 9.8 15.9 11 21.5 29 20.2 45.6-1.7 20.1-12.6 39.6-30.3 54.1-17.7 14.6-42 23.9-67.4 26.1-17.5-3.3-29.7-14.5-34.5-28.2-4.8-13.7-2.3-28.3 2.7-42 6.4-17.5 21-34.6 34.7-49.3z"/>
							</g>
						</g>
						<g id="&lt;Group&gt;">
							<g id="&lt;Group&gt;">
								<path id="&lt;Compound Path&gt;" fill-rule="evenodd" class="s3" d="m592.6 569.1q-0.3 0-0.7-0.1c-17.8-3.3-31.7-14.7-37.1-30.4-4.5-12.8-3.6-27.3 2.7-44.4 6.6-18.1 21.6-35.7 35.4-50.5 8.9-9.5 23-15.9 37.8-17.2 14.8-1.2 30.2 2.7 41.4 10.4 15.2 10.6 23.3 28.8 21.7 48.8-1.8 20.9-13.3 41.5-31.6 56.6-18.1 14.8-43.4 24.6-69.3 26.8q-0.2 0-0.3 0zm43.7-135.8q-2.5 0-5 0.2c-13.1 1.1-25.5 6.7-33.2 15-13.4 14.3-27.8 31.2-34 48.1-5.7 15.5-6.6 28.5-2.7 39.7 4.6 13.1 16.3 22.7 31.4 25.7 24.4-2.1 48-11.3 65-25.2 16.8-13.8 27.4-32.7 28.9-51.7 1.5-17.7-5.3-33.2-18.6-42.4-8.6-6-20.3-9.4-31.8-9.4zm-40.8 12.8z"/>
							</g>
						</g>
						<g id="&lt;Group&gt;">
							<g id="&lt;Group&gt;">
								<path id="&lt;Path&gt;" class="s3" d="m546.7 527.6c-1.4-0.3-2.7-0.9-3.8-1.8-3.8-3-3.8-7.7 0-10.7 27.8-21.9 64.6-35.9 103.6-39.4 5.2-0.5 10 2.5 10.6 6.6 0.6 4.1-3.2 7.9-8.4 8.3-34.8 3.2-67.6 15.7-92.4 35.2-2.6 2-6.3 2.6-9.6 1.8z"/>
							</g>
						</g>
					</g>
					<g id="&lt;Group&gt;">
						<g id="&lt;Group&gt;">
							<g id="&lt;Group&gt;">
								<path id="&lt;Path&gt;" class="s4" d="m283.9 494.5c5 13.4 7.4 27.9 2.7 41.4-4.8 13.4-17 24.4-34.5 27.7-25.4-2.1-49.7-11.3-67.4-25.7-17.7-14.3-28.6-33.5-30.3-53.3-1.3-16.4 4.3-34.1 20.2-44.9 10.5-7.3 25.1-10.9 39-9.7 14 1.2 27.3 7.1 35.6 15.9 13.7 14.4 28.3 31.3 34.7 48.6z"/>
							</g>
						</g>
						<g id="&lt;Group&gt;">
							<g id="&lt;Group&gt;">
								<path id="&lt;Compound Path&gt;" fill-rule="evenodd" class="s3" d="m252.1 567.1q-0.1 0-0.3 0c-25.9-2.1-51.2-11.8-69.3-26.4-18.3-14.8-29.9-35.2-31.6-55.8-1.6-19.7 6.5-37.7 21.7-48.1 11.2-7.7 26.6-11.5 41.3-10.3 14.8 1.2 29 7.6 37.8 17q0 0 0 0c13.8 14.6 28.9 31.9 35.5 49.7 6.3 16.9 7.1 31.2 2.7 43.8-5.5 15.5-19.4 26.8-37.2 30q-0.3 0.1-0.6 0.1zm-43.7-133.8c-11.6 0-23.2 3.3-31.8 9.3-13.3 9.1-20.1 24.3-18.7 41.7 1.6 18.7 12.2 37.3 29 50.9 16.9 13.7 40.6 22.8 65 24.8 15.1-2.9 26.8-12.3 31.4-25.3 3.8-11 3-23.8-2.7-39-6.2-16.7-20.6-33.3-34-47.4-7.7-8.2-20.1-13.7-33.2-14.8q-2.5-0.2-5-0.2z"/>
							</g>
						</g>
						<g id="&lt;Group&gt;">
							<g id="&lt;Group&gt;">
								<path id="&lt;Path&gt;" class="s3" d="m288.3 524.4c-24.7-19.2-57.5-31.5-92.3-34.6-5.2-0.5-9-4.2-8.4-8.2 0.6-4.1 5.3-7 10.6-6.6 39 3.5 75.8 17.3 103.6 38.9 3.7 2.9 3.7 7.6 0 10.5-1.1 0.8-2.4 1.5-3.8 1.8-3.3 0.8-7.1 0.2-9.7-1.8z"/>
							</g>
						</g>
					</g>
					<g id="&lt;Group&gt;">
						<path id="&lt;Path&gt;" class="s12" d="m647.1 367.4c0.1 15.8-0.9 53.7-8.9 94.8-9.7 49.9-29.6 104.5-70.1 130.4-82.7 52.9-185.7 58.2-278.6 1.2-37.3-23-58.8-75.1-70.8-125.3-9.1-38-12.8-74.9-13.8-97-2.2-48.3 8.5-92.2 48.5-121 17.5-12.6 37.6-20.9 58.1-26.8 76.5-22.2 161.8-31.4 235.1-0.3 25.1 10.6 63.2 25.3 83.1 44.5 20.3 19.7 17.4 96.4 17.4 99.5z"/>
					</g>
					<g id="&lt;Group&gt;">
						<path id="&lt;Path&gt;" class="s11" d="m647.1 367.4c0.1 15.8-0.9 53.7-8.9 94.8-37.9-9.9-72.1-30.7-104.3-52.6-5.5-3.7-14.8-6.7-13.9-13.1-19.5 10.8-42.4 14.8-64.8 14.6-22.5-0.3-44.7-4.6-66.5-9.8-9.2-2.1-18.4-4.4-27.9-4.9 3.7-29.2-17.6-58.4-10.3-87-25.1 27-43.5 57.9-55.2 92.3-16.4 9.1-32.7 18.7-46.9 30.6-12.1 10.2-22.8 22.3-29.7 36.2-9.1-38-12.8-74.9-13.8-97-2.2-48.3 8.5-92.2 48.5-121 17.5-12.6 37.6-20.9 58.1-26.8 76.5-22.2 161.8-31.4 235.1-0.3 25.1 10.6 63.2 25.3 83.1 44.5 20.3 19.7 17.4 96.4 17.4 99.5z"/>
					</g>
					<g id="&lt;Group&gt;">
						<path id="&lt;Compound Path&gt;" fill-rule="evenodd" class="s3" d="m428.3 637.9c-48.8 0-96.1-13.8-140.6-41.1-76-46.7-85.5-207-86.3-225.1-2.7-57.3 13.7-97.9 49.9-124.1 15.9-11.4 35.3-20.3 59.2-27.3 80.4-23.3 135.2-31.2 211.4-9.4 33.6 9.6 93.4 33 110.5 54.9 14.6 18.4 21.1 53.9 18.3 99.8q0 1.4-0.1 1.8c0.2 29.4-3.2 178.6-80.6 228.1-42 26.9-89.5 41.6-137.3 42.4q-2.2 0-4.4 0zm8.1-432.7c-38.8 0-76.9 8.2-123.9 21.9-23.2 6.7-41.9 15.3-57 26.3-34.2 24.6-49.6 63.2-47.1 118 0.8 17.7 10.1 174.6 83 219.4 87.2 53.5 190 53.1 274.8-1.2 30.6-19.6 52.8-58.3 65.8-115 11-48.2 11.7-94.2 11.6-107.2 0-0.3 0-0.9 0.1-2.2 2.6-44.2-3.3-78-16.8-95.1-15.3-19.4-71.7-42.4-107-52.4-30.2-8.7-57-12.5-83.5-12.5z"/>
					</g>
					<g id="&lt;Group&gt;">
						<path id="&lt;Path&gt;" class="s13" d="m343.1 543.7c-4.9 21.5-27.1 34.7-49.6 29.6-22.5-5.1-36.8-26.7-32-48.2 4.9-21.5 27.1-34.8 49.6-29.7 22.5 5.2 36.8 26.8 32 48.3z"/>
					</g>
					<g id="&lt;Group&gt;">
						<path id="&lt;Path&gt;" class="s13" d="m594.1 540.7c-4.9 21.5-27.1 34.8-49.6 29.7-22.5-5.2-36.8-26.8-32-48.3 4.9-21.5 27.1-34.8 49.6-29.6 22.5 5.1 36.8 26.7 32 48.2z"/>
					</g>
					<g id="&lt;Group&gt;">
						<g id="&lt;Group&gt;">
							<ellipse id="&lt;Path&gt;" class="s14" cx="423.8" cy="477.9" rx="15.9" ry="7.3"/>
						</g>
					</g>
					<g id="&lt;Group&gt;">
						<g id="&lt;Group&gt;">
							<g id="&lt;Group&gt;">
								<path id="&lt;Path&gt;" class="s15" d="m515.1 397.4c25.5 5.8 41.9 32.7 36.5 60.2-5.4 27.5-30.4 45-56 39.2-25.5-5.7-41.9-32.7-36.5-60.1 5.4-27.5 30.5-45 56-39.3z"/>
							</g>
							<g id="&lt;Group&gt;">
								<path id="&lt;Path&gt;" class="s3" d="m512.6 411.8c18 3.8 30 21.1 27.9 39.5l-21.9-1.4 20.4 8.4c-5.5 17.4-23.1 28.1-40.9 24.2-19.1-4.1-31.3-23.3-27.3-42.8 4-19.6 22.7-32.1 41.8-27.9z"/>
							</g>
							<g id="&lt;Group&gt;">
								<path id="&lt;Path&gt;" class="s15" d="m486.6 451c-8.1-1.7-10.8 11.1-2.7 12.8 8.1 1.8 10.7-11 2.7-12.8z"/>
							</g>
							<g id="&lt;Group&gt;">
								<path id="&lt;Path&gt;" class="s3" d="m553.6 457.5q0 0-0.1 0c-1.6-0.1-2.9-1.5-2.9-3.1 0.6-13.5-3.6-26.8-11.4-36.7-8.3-10.4-20.7-17.1-33.3-17.8-13-0.7-26.2 5.2-33.7 15.1-1 1.3-2.9 1.6-4.2 0.6-1.4-1-1.6-2.9-0.6-4.2 8.8-11.7 23.7-18.4 38.8-17.5 14.3 0.8 28.4 8.3 37.7 20.1 8.7 10.9 13.3 25.8 12.8 40.6-0.1 1.6-1.4 2.9-3.1 2.9z"/>
							</g>
							<g id="&lt;Group&gt;">
								<path id="&lt;Path&gt;" class="s3" d="m525.5 405.6c-0.8 0-1.7-0.3-2.3-1-1-1.3-0.9-3.2 0.3-4.3 3.6-3.1 5.7-8 7.5-12.4 0.7-1.5 2.4-2.3 4-1.6 1.5 0.6 2.2 2.4 1.6 3.9-2.1 5-4.4 10.7-9.1 14.7-0.6 0.5-1.3 0.7-2 0.7z"/>
							</g>
							<g id="&lt;Group&gt;">
								<path id="&lt;Path&gt;" class="s3" d="m535.1 412.1c-1.3 0-2.6-1-2.9-2.4-0.4-1.6 0.6-3.2 2.2-3.6 2.1-0.5 3.9-1.9 5-3.1 1.5-1.6 2.8-3.7 4.1-5.7 0.9-1.4 2.8-1.8 4.2-0.9 1.4 0.9 1.8 2.8 0.9 4.2-1.4 2.2-2.9 4.5-4.9 6.6-2.3 2.5-5.1 4.1-7.9 4.8q-0.3 0.1-0.7 0.1z"/>
							</g>
						</g>
						<g id="&lt;Group&gt;">
							<path id="&lt;Path&gt;" class="s3" d="m553.1 479.8q-0.9 0-1.6-0.4l-5.7-3.5c-1.4-0.9-1.9-2.7-1-4.2 0.8-1.4 2.7-1.8 4.1-1l5.7 3.5c1.5 0.9 1.9 2.8 1 4.2-0.5 0.9-1.5 1.4-2.5 1.4z"/>
						</g>
						<g id="&lt;Group&gt;">
							<path id="&lt;Path&gt;" class="s3" d="m541.9 489.2c-0.6 0-1.3-0.2-1.8-0.6l-4.1-3.1c-1.3-0.9-1.6-2.8-0.6-4.2 1-1.3 2.9-1.6 4.2-0.6l4.1 3.1c1.3 1 1.6 2.9 0.6 4.2-0.6 0.8-1.5 1.2-2.4 1.2z"/>
						</g>
						<g id="&lt;Group&gt;">
							<path id="&lt;Path&gt;" class="s3" d="m528.7 497.5c-0.9 0-1.8-0.4-2.4-1.2q-1.9-2.6-3-5.5c-0.6-1.6 0.2-3.3 1.8-3.9 1.5-0.6 3.3 0.2 3.8 1.8q0.8 2.1 2.2 4c1 1.3 0.7 3.2-0.6 4.2-0.5 0.4-1.2 0.6-1.8 0.6z"/>
						</g>
					</g>
					<g id="&lt;Group&gt;">
						<g id="&lt;Group&gt;">
							<g id="&lt;Group&gt;">
								<path id="&lt;Path&gt;" class="s15" d="m390.3 436.7c5.4 27.4-10.9 54.4-36.5 60.1-25.5 5.8-50.6-11.7-55.9-39.2-5.4-27.5 10.9-54.4 36.5-60.2 25.5-5.7 50.6 11.8 55.9 39.3z"/>
							</g>
							<g id="&lt;Group&gt;">
								<path id="&lt;Path&gt;" class="s3" d="m378.7 439.7c4 19.5-8.2 38.7-27.3 42.8-17.9 3.9-35.4-6.8-40.9-24.2l20.4-8.4-21.9 1.4c-2.1-18.4 9.8-35.7 27.8-39.5 19.1-4.2 37.9 8.3 41.9 27.9z"/>
							</g>
							<g id="&lt;Group&gt;">
								<path id="&lt;Path&gt;" class="s15" d="m362.9 451c8.1-1.7 10.7 11.1 2.6 12.8-8 1.8-10.7-11-2.6-12.8z"/>
							</g>
							<g id="&lt;Group&gt;">
								<path id="&lt;Path&gt;" class="s3" d="m295.8 457.5c-1.6 0-2.9-1.3-3-2.9-0.6-14.8 4.1-29.7 12.8-40.6 9.3-11.8 23.3-19.3 37.6-20.1 15.2-0.9 30.1 5.8 38.9 17.5 1 1.3 0.7 3.2-0.6 4.2-1.3 1-3.2 0.7-4.2-0.6-7.5-9.9-20.8-15.8-33.7-15.1-12.6 0.7-25.1 7.4-33.3 17.8-7.8 9.9-12 23.2-11.5 36.7 0.1 1.6-1.2 3-2.9 3.1q0 0-0.1 0z"/>
							</g>
							<g id="&lt;Group&gt;">
								<path id="&lt;Path&gt;" class="s3" d="m323.9 405.6c-0.7 0-1.4-0.2-1.9-0.7-4.7-4-7.2-9.9-9.1-14.7-0.7-1.5 0-3.3 1.6-3.9 1.5-0.7 3.3 0.1 3.9 1.6 1.9 4.4 3.9 9.3 7.5 12.4 1.3 1.1 1.4 3 0.3 4.3-0.6 0.7-1.4 1-2.3 1z"/>
							</g>
							<g id="&lt;Group&gt;">
								<path id="&lt;Path&gt;" class="s3" d="m314.3 412.1q-0.3 0-0.7-0.1c-2.8-0.7-5.5-2.3-7.9-4.8-1.9-2.1-3.4-4.4-4.8-6.6-0.9-1.4-0.5-3.3 0.9-4.2 1.4-0.9 3.2-0.5 4.1 0.9 1.3 2 2.6 4.1 4.2 5.7 1.1 1.2 2.8 2.6 4.9 3.1 1.6 0.4 2.6 2 2.3 3.6-0.4 1.4-1.6 2.4-3 2.4z"/>
							</g>
						</g>
						<g id="&lt;Group&gt;">
							<path id="&lt;Path&gt;" class="s3" d="m296.4 479.8c-1 0-2-0.5-2.6-1.4-0.8-1.4-0.4-3.3 1-4.2l5.7-3.5c1.5-0.8 3.3-0.4 4.2 1 0.8 1.5 0.4 3.3-1 4.2l-5.7 3.5q-0.8 0.4-1.6 0.4z"/>
						</g>
						<g id="&lt;Group&gt;">
							<path id="&lt;Path&gt;" class="s3" d="m307.6 489.2c-1 0-1.9-0.4-2.5-1.2-1-1.3-0.7-3.2 0.7-4.2l4.1-3.1c1.3-1 3.2-0.7 4.2 0.6 1 1.4 0.7 3.3-0.6 4.2l-4.1 3.1c-0.6 0.4-1.2 0.6-1.8 0.6z"/>
						</g>
						<g id="&lt;Group&gt;">
							<path id="&lt;Path&gt;" class="s3" d="m320.7 497.5c-0.6 0-1.2-0.2-1.7-0.6-1.4-1-1.7-2.9-0.7-4.2q1.4-1.9 2.2-4c0.6-1.6 2.3-2.4 3.9-1.8 1.6 0.6 2.3 2.3 1.8 3.9q-1.1 2.9-3 5.5c-0.6 0.8-1.5 1.2-2.5 1.2z"/>
						</g>
					</g>
					<g id="&lt;Group&gt;">
						<path id="&lt;Path&gt;" class="s1" d="m669.8 377.4c-2.9 39.3-14.1 70.1-24.3 78-7.7-2.1-14.7-5.9-21.6-9.7q-11.1-6.1-22.2-12.2c-7.9-4.3-15.9-8.7-22.8-14.3-13.5-10.8-36.7-27-39.6-43.5-7-39.5-15.4-79.8-38.5-113.1 12.2 40.4 19.1 82.8 16.2 124.8-4.9-0.3-6.7-0.6-11.6-0.9-3.5-42.7-13.5-88.3-22.9-130.2 8.6 43.7 13.3 89.3 9.7 133.7-10.4 7-32.6 8.4-45.3 8.3-18.6-0.1-29.4-4.3-46.4-11.7 1.4-45.8 4.4-92.5 5.8-138.3-19.5 44.4-27.2 94.7-25.2 142.8-22.4 7.9-48.1 6.6-71-0.1-2.2-43.3 8.7-86.7 30.2-124.8-30.7 31.1-51.1 82.6-54.5 125.2-34.9 31.5-56 41.2-91.2 57.5-15.3-22.5-25.5-116.9 16.9-194.9 31.9-58.4 93.4-107.7 204.7-110.5 219-5.6 260.5 139.1 253.6 233.9z"/>
					</g>
					<g id="&lt;Group&gt;">
						<path id="&lt;Path&gt;" class="s2" d="m667.8 377.4c-2.9 39.3-14 70.1-24.3 78-7.7-2.1-14.7-5.9-21.6-9.7q-11-6.1-22.1-12.2c-8-4.3-15.9-8.7-22.9-14.3-13.4-10.8-36.6-27-39.6-43.5-7-39.5-15.4-79.8-38.5-113.1 12.2 40.4 19.2 82.8 16.2 124.8-4.9-0.3-6.7-0.6-11.5-0.9-3.5-42.7-13.6-88.3-23-130.2 8.6 43.7 13.3 89.3 9.8 133.7-10.4 7-32.6 8.4-45.3 8.3-18.7-0.1-29.5-4.3-46.5-11.7 1.4-45.8 4.4-92.5 5.8-138.3-19.5 44.4-27.1 94.7-25.2 142.8-22.4 7.9-48.1 6.6-70.9-0.1-2.2-43.3 8.6-86.7 30.1-124.8-30.6 31.1-51 82.6-54.4 125.2-34.9 31.5-56.1 41.2-91.3 57.5-15.2-22.5-25.5-116.9 17-194.9q-0.6 1.9-1.1 3.8c-6 21-10.9 42.5-10.8 64.4 0.1 24.5 6.7 49 19 70.5 4.2-2.5 8.6-4.5 13.4-5.7-2.5-46.2 19-91.7 51.3-126-24.7 32.7-29.5 75.6-26 115.9 1-34.7 15.3-68.3 37.1-95.9 21.9-27.6 51.2-49.3 83.1-65.6-9.8 20.5-19.5 41.2-25.8 63-6.3 21.8-9.1 44.9-4.8 67.1 4.2 0.1 6.1 1.4 10.3 1.5 0.7 0 1.3 0.1 1.9-0.2 0.9-0.5 1.2-1.7 1.3-2.7 3.2-20.1 7.7-39.9 13.5-59.4 8.1-26.9 18.6-53.9 17-81.9 32.3 41.4 45.9 95.7 36.5 146.6 14-40.5 16.2-82.7 6.6-124.4 19.1 37.2 29.3 78.5 29.7 119.9 11.9-51.3 8.1-106.7-8.4-156.8 11.1 6.8 19.9 16.3 28.7 25.6 19.8 21.1 39.9 42.6 52.7 68.2 10.1 20 15.5 41.9 20.5 63.6 6.6-34.9 7.1-69.3-6.3-102.3 30.5 34.2 48.7 78.3 50.9 123.3 9.2 12.1 21.5 21.8 35.8 27.9 2.9-39.7 6.2-79.2-4.6-117.6 15.3 28.7 18.7 97 19.7 98.1 0.7 0.8 12.2 2.7 17 2.5z"/>
					</g>
					<g id="&lt;Group&gt;">
						<path id="&lt;Compound Path&gt;" fill-rule="evenodd" class="s3" d="m643.5 458.9q-0.5 0-0.9-0.1c-8.1-2.3-15.4-6.2-22.4-10l-22.1-12.2c-8-4.3-16.2-8.8-23.4-14.7q-2.6-2-5.5-4.3c-13.7-10.8-32.5-25.5-35.3-41.3-5.6-31.1-11.8-61.4-24.7-88.6 8.4 35.3 11.5 68.9 9.3 99.9-0.1 1.9-1.8 3.4-3.7 3.3-2.5-0.2-4.2-0.3-5.9-0.5-1.7-0.1-3.3-0.2-5.6-0.4-1.8-0.1-3.2-1.5-3.3-3.2-1.2-13.7-3-27.8-5.2-41.9 0.5 15.6 0.1 30.7-1 45.4-0.1 1.1-0.7 2-1.6 2.6-12.2 8.2-37.1 9-47.2 8.9-19.5 0-30.9-4.6-47.9-12-1.3-0.5-2.2-1.8-2.1-3.3 0.7-22.9 1.8-46.4 2.9-69.2 0.8-16 1.5-32.4 2.2-48.7-13.2 37.3-19.2 79.1-17.5 122.4 0.1 1.5-0.9 2.9-2.3 3.4-21.3 7.6-47.3 7.5-73.1-0.1-1.5-0.4-2.5-1.7-2.6-3.1-1.6-33.3 4.2-66.7 16.9-98.2-18.4 28.2-31.4 64.8-34.1 98.7-0.1 0.9-0.5 1.7-1.2 2.3-35.1 31.7-56.3 41.5-91.5 57.8l-0.6 0.3c-1.5 0.7-3.4 0.2-4.4-1.2-8.7-13-14.3-43.7-13.8-76.5 0.4-29.5 5.7-73.7 28-117.3 17.5-33.9 42.3-61 73.7-80.6 36.8-22.9 82.7-35.2 136.5-36.5 69.2-1.8 126 11.3 168.7 39 35.6 23 61.1 55.7 75.7 97.1 16.6 46.9 14.3 92 11.5 114.7-4 32.2-13.8 59.2-24.4 67.4-0.6 0.4-1.4 0.7-2.1 0.7zm-144.7-199.8c1.2 0 2.3 0.5 2.9 1.5 23.3 33.7 31.8 73.4 39.1 114.5 2.3 13.1 19.9 26.9 32.7 37 2 1.5 3.9 3 5.6 4.4 6.8 5.4 14.7 9.8 22.4 14l22.1 12.1c6.1 3.3 12.4 6.8 19 8.8 7.5-7.3 16.5-29.9 20.4-61.4 2.8-22.1 5-66-11.1-111.6-22-62.1-81-135.4-237.6-131.4-122.2 3.1-178.4 63.4-204.1 113.4-21.8 42.3-26.8 85.4-27.3 114.1-0.5 33.3 5.2 58.6 11.1 69.9 32.9-15.3 53.5-25.1 86.5-54.7 4-45.9 26.2-96.4 55.3-126 1.3-1.2 3.2-1.4 4.6-0.3 1.5 1.1 1.9 3 1 4.5-21.2 37.5-31.4 79.1-29.8 120.4 22.6 6.2 45.1 6.3 63.9 0.3-1.7-50.8 7.1-99.7 25.6-141.7 0.7-1.5 2.3-2.4 4-2 1.6 0.4 2.8 1.8 2.7 3.5-0.7 22.9-1.8 46.5-2.9 69.2-1 22-2.1 44.6-2.8 66.7 15.4 6.7 25.6 10.4 42.9 10.5q0.3 0 0.6 0c14.4 0 32.2-1.8 41.3-6.9 3-39.5-0.3-82.4-9.8-130.9-0.4-1.9 0.8-3.8 2.7-4.2 1.9-0.4 3.7 0.8 4.2 2.7 8.4 37.8 18.9 84.7 22.7 127.7 1 0.1 1.9 0.2 2.8 0.2 0.8 0.1 1.5 0.2 2.2 0.2 2.1-36.8-3.3-77.2-16.2-120-0.5-1.6 0.2-3.4 1.8-4.2q0.8-0.3 1.5-0.3z"/>
					</g>
					<g id="&lt;Group&gt;">
						<path id="&lt;Path&gt;" class="s3" d="m320.3 367c11.4-5 23.8-7.3 36.2-8.3 2.1-0.2 4.2-0.3 6 0.7 2.2 1.4 2.9 4.1 3.1 6.7 0.2 3.3-0.2 6.8-1.1 10.1-0.3 1-0.7 2.1-1.6 2.8-0.7 0.6-1.7 0.8-2.7 1-14.7 2.8-30.1 1.4-44.5 5.4-6.9 1.9-13.3 5-20.3 6.6-8.1 1.7 4.4-11.3 6.2-13 5.4-5 11.9-9 18.7-12z"/>
					</g>
					<g id="&lt;Group&gt;">
						<path id="&lt;Path&gt;" class="s3" d="m530.1 372.4c1.9 1.6 14.8 14.3 6.6 12.8-7-1.4-13.6-4.3-20.4-6.1-14.5-3.6-29.9-1.8-44.7-4.2-1-0.2-2-0.4-2.8-0.9-0.9-0.7-1.3-1.8-1.6-2.9-1-3.2-1.5-6.6-1.3-10 0.1-2.6 0.7-5.4 2.9-6.8 1.7-1 3.8-1 5.9-0.9 12.4 0.8 24.9 2.8 36.4 7.5 6.9 2.8 13.5 6.6 19 11.5z"/>
					</g>
					<g id="&lt;Group&gt;">
						<path id="&lt;Path&gt;" class="s3" d="m697.1 571.6c-3.7 0-6.8-0.5-9.4-1.7-2.9-1.2-5.6-3.1-8.5-6.1-8.2-8.6-13.4-20.3-14.1-32.2-0.2-1.9 1.3-3.6 3.3-3.7 1.9-0.1 3.6 1.4 3.7 3.3 0.6 10.2 5.1 20.3 12.2 27.7 2.2 2.3 4.2 3.7 6.1 4.6 2 0.8 4.4 1.2 7.4 1.1 8.5-0.2 16-3.7 20.1-9.4 1.1-1.6 3.3-2 4.9-0.8 1.6 1.1 1.9 3.3 0.8 4.9-5.4 7.5-15 12.1-25.6 12.3q-0.5 0-0.9 0z"/>
					</g>
					<g id="&lt;Group&gt;">
						<path id="&lt;Path&gt;" class="s3" d="m158.7 573.1c-7.8 0-15.9-4.3-21-11.7-1.2-1.6-0.8-3.8 0.8-4.9 1.6-1.1 3.8-0.7 4.9 0.9 4.1 5.7 12 10.4 19.3 8.1 3.2-1.1 6-3.3 8.4-5.4 7.2-6.3 11.5-12.8 12.7-19.3 0.4-1.9 2.2-3.1 4.1-2.8 1.9 0.4 3.2 2.2 2.8 4.1-1.5 8.1-6.5 15.9-14.9 23.3-3 2.5-6.5 5.4-11 6.8-2 0.6-4 0.9-6.1 0.9z"/>
					</g>
					<g id="&lt;Group&gt;">
						<g id="&lt;Group&gt;">
							<g id="&lt;Group&gt;">
								<g id="&lt;Group&gt;">
									<path id="&lt;Path&gt;" class="s16" d="m493.8 123.8c-3 16-13.4 27.5-23.3 25.6-9.9-1.8-15.5-16.3-12.5-32.3 3-16.1 13.5-27.5 23.4-25.7 9.9 1.9 15.4 16.3 12.4 32.4z"/>
								</g>
								<g id="&lt;Group&gt;">
									<path id="&lt;Compound Path&gt;" fill-rule="evenodd" class="s3" d="m472.6 153.1q-1.4 0-2.8-0.2c-11.9-2.3-18.6-18.3-15.2-36.5 3.4-18.2 15.5-30.7 27.4-28.4 12 2.2 18.7 18.2 15.3 36.4-3.2 16.8-13.7 28.7-24.7 28.7zm6.6-58.4c-7.4 0-15.3 10-17.7 23-2.6 13.9 1.8 26.8 9.6 28.3 7.9 1.4 16.7-9 19.3-22.9 2.6-13.8-1.9-26.8-9.7-28.2q-0.7-0.2-1.5-0.2z"/>
								</g>
							</g>
							<g id="&lt;Group&gt;">
								<path id="&lt;Path&gt;" class="s17" d="m681.6 318.7l-45.3-5.5-7.3-0.9-22.5-2.7-73.6-18-7.1-1.7-66.7-16.4-6.8-1.7-79-19.3-6.8-1.7-34.3-8.4-54.6-0.2h-7.6l-65.6-0.3c0-16.8 17.5-44.4 48-69.8 6-5.1 12.6-10 19.5-14.8q0 0 0 0c31.8-21.6 73.1-39.6 120.8-44.7q6.5-0.7 13-1.1c11.8-0.6 23.9-0.5 36.3 0.5q0.2 0 0.5 0.1 3.9 0.3 7.8 0.7 10.8 1.1 20.9 2.8 3.4 0.6 6.8 1.2 8.7 1.5 16.9 3.5 3.9 0.9 7.7 1.9 17.3 4.6 32.6 10.6 6.1 2.4 11.8 5c64.9 29.1 101.9 77.2 120.3 123.5q0.1 0.2 0.2 0.5c7.9 19.9 12.3 39.4 14.1 56.9z"/>
							</g>
							<g id="&lt;Group&gt;">
								<g id="&lt;Group&gt;">
									<path id="&lt;Path&gt;" class="s16" d="m405.7 111.5c-8.2 5.8-16.2 12.1-24.1 18.3-28.9 22.7-56.4 47.7-79.3 76.6-8.8 11.1-17.4 23.1-24.7 35.8h-7.6c17.5-31.9 41.9-60 68.4-84.6 14-13.1 28.8-25.3 44-37.1q5.1-4 10.3-7.9 6.5-0.7 13-1.1z"/>
								</g>
								<g id="&lt;Group&gt;">
									<path id="&lt;Path&gt;" class="s16" d="m450.3 112.8c-8.3 9.6-16.2 19.6-23.6 29.9-23.9 33.3-42.5 70.5-53.4 109.8l-6.8-1.7c14.1-51.2 41.2-98.1 75.5-138.8q0.2 0 0.5 0.1 3.9 0.3 7.8 0.7z"/>
								</g>
								<g id="&lt;Group&gt;">
									<path id="&lt;Path&gt;" class="s16" d="m478 116.8q-3.7 18.9-6.7 38c-6.2 39.3-10.3 79-12.2 118.7l-6.8-1.7c2.6-52.4 9-104.6 18.9-156.2q3.4 0.6 6.8 1.2z"/>
								</g>
								<g id="&lt;Group&gt;">
									<path id="&lt;Path&gt;" class="s16" d="m636.3 313.2l-7.3-0.9c-9.8-36.4-24.6-70.6-43.7-103.4-15.4-26.1-32.3-51.5-50.1-76.1q6.1 2.4 11.8 5 6.9 9.7 13.5 19.4c23.8 35.1 46.1 71.4 61.6 110.9 5.8 14.7 10.4 29.8 14.2 45.1z"/>
								</g>
								<g id="&lt;Group&gt;">
									<path id="&lt;Path&gt;" class="s16" d="m532.9 291.6l-7.1-1.7c-6.7-57.2-15.6-114.1-30.9-169.6q3.9 0.9 7.7 1.9 4.8 17.8 8.8 35.8c9.8 44.1 16.3 88.8 21.5 133.6z"/>
								</g>
							</g>
							<g id="&lt;Group&gt;" style="opacity: .2">
								<path id="&lt;Path&gt;" class="s16" d="m681.6 318.7l-45.3-5.5-7.3-0.9-22.5-2.7-73.6-18-7.1-1.7-66.7-16.4-6.8-1.7-79-19.3-6.8-1.7-34.3-8.4-54.6-0.2h-7.6l-65.6-0.3c0-16.8 17.5-44.4 48-69.8 6-5.1 12.6-10 19.5-14.8-4.1 8.5-7.1 17.5-7.7 26.8 20.8 11.5 40.4 25.1 59.4 39.4 8.1-14.8 19.5-25.8 32.8-36.1-9.2 10.4-14.4 24.1-14.5 37.9q26.6 1.7 53.1 3.5c2.4 0.1 4.9 0.2 7.1-0.7 2-0.9 3.4-2.6 4.8-4.3 5.7-6.9 10.8-14.4 15.3-22.1q-1.5 13.9-3 27.9c31.8 9.7 64.3 20.9 95.2 33.2 12.8 5.1 26.1 10.5 39.9 10.1q-2.2-12.5-4.5-24.9c7.3 10.3 13.1 21.5 17.3 33.4 0.3-5.2 1.3-10.3 2.8-15.2 7.3 4.6 12.8 12 15.2 20.3-3.7-32.6-13.2-64.6-27.9-94 25 23.7 35.6 58.2 45.3 91.2 10.4-1.8 18.3-11.2 21-21.4 2.8-10.2 1.3-21.1-1.1-31.4q9.5 22.2 18.9 44.4c0.5 1.2 1 2.4 2.1 3.1 2.2 1.5 5.1-0.1 7.2-1.7 6-4.6 11.7-9.5 16.9-14.9 7.9 19.9 12.3 39.4 14.1 56.9z"/>
							</g>
							<g id="&lt;Group&gt;">
								<path id="&lt;Compound Path&gt;" fill-rule="evenodd" class="s3" d="m681.6 322.2q-0.3 0-0.5-0.1l-75-9q-0.2 0-0.4-0.1l-273.9-67-127.4-0.6c-2 0-3.5-1.5-3.5-3.5 0-17 15.7-42.1 41-65.3 16.4-15 44.2-36.1 83.8-51.3 37.8-14.5 77.2-20.2 117.1-16.8 41 3.6 78 13 110.1 28.1 28.4 13.4 53.1 31.3 73.4 53.2 32.7 35.3 54.1 82.1 58.8 128.5 0.1 1.1-0.3 2.1-1.1 2.9-0.6 0.6-1.5 1-2.4 1zm-74.5-16l70.5 8.4c-10.4-84.4-77.7-185.5-235.4-199-104.7-9-176.2 48.4-195.6 66.2-21.7 20-36.4 41.7-38.4 56.6l124.1 0.5q0.4 0 0.8 0.1z"/>
							</g>
						</g>
						<g id="&lt;Group&gt;">
							<g id="&lt;Group&gt;">
								<path id="&lt;Path&gt;" class="s18" d="m780.7 483.5c-3.4 16.1-10 32.1-21.7 43.7-20.3 20.3-68.9 25.8-92.7 9.7 5.8-5.4 10.9-11.7 14.9-18.5 6.1-10.4 9.7-22.1 9.7-34.1-0.1-19.9-11.8-40.2-29.8-48.5 12.6-35.2 15.7-77 5.8-113-13.1-0.2-25.9-2.9-38.4-6.7-6.9-2-13.7-4.4-20.4-6.8q-0.1-0.2-0.1-0.4c39.8-18.5 101.6-41.9 139.5-2 31.2 32.8 0.8 72.7-8.4 81.9 28.4 20.4 48.6 60.5 41.6 94.7z"/>
							</g>
							<g id="&lt;Group&gt;">
								<path id="&lt;Path&gt;" class="s18" d="m329.1 242.1q-0.1 0.2-0.1 0.4c-19 0.5-38.2 1.9-56.3 5.4-34.4 6.5-64.6 20.7-81.1 51.1-15.6 28.6-15.7 88.5-5.9 133.8-16.6 8.7-31.5 28.4-31.5 47.2q0 4.4 0.6 8.4c3.6 25.6 22.9 41.8 33 52.4-7.1 9-21.1 13.9-32.5 13.3-11.5-0.5-22.5-6.4-29.8-15.3-5-5.9-8.4-13.1-9-20.8-0.7-7.6 1.6-15.6 6.7-21.4-27.3 1.7-55-12-69.6-35.2-14.5-23.3-15.4-54.2-2.7-78.5 12.6-24.3 38.4-41.1 65.7-43.3-40.1-50.5 6.1-122.3 59.3-140 81.4-27.1 128 19.9 133.2 24.9 6.3 6.2 13.1 12 20 17.6z"/>
							</g>
							<g id="&lt;Group&gt;">
								<path id="&lt;Path&gt;" class="s19" d="m256.7 240.6c5.5 2.1 10.8 4.6 16 7.3-34.4 6.5-64.6 20.7-81.1 51.1-15.6 28.6-15.7 88.5-5.9 133.8-16.6 8.7-31.5 28.4-31.5 47.2q0 4.4 0.6 8.4c-5.7-7.3-11-14.7-13.9-23.4-3.7-11-3-23-0.2-34.2 2.9-11.2 7.8-21.8 12.7-32.2-9.4-33.4-8.5-73.6 1.2-106.9 5-17.1 13-34.2 27.1-45.1 20.7-16.1 50.5-15.2 75-6z"/>
							</g>
							<g id="&lt;Group&gt;">
								<path id="&lt;Path&gt;" class="s19" d="m717.2 456.4c-0.6 12.6-3.3 25.3-9.6 36.2-6.3 10.9-15.7 19.1-26.4 25.8 6.1-10.4 9.7-22.1 9.7-34.1-0.1-19.9-11.8-40.2-29.8-48.5 12.6-35.2 15.7-77 5.8-113-13.1-0.2-25.9-2.9-38.4-6.7 10.7-5.5 21.4-11.1 33.3-11.4 16.5-0.5 32.8 10.5 38.4 26.1 5.6 15.6 0.2 34.5-12.9 44.6 22.1 19.3 31.3 51.8 29.9 81z"/>
							</g>
							<g id="&lt;Group&gt;">
								<path id="&lt;Path&gt;" class="s17" d="m607.1 309.3q-0.3 0.2-0.6 0.3c-12.6 6-25.2 12.5-38.8 15.7-12.9 3.2-26.4 3.3-39.7 2.4-36.8-2.5-72.7-12.4-106.3-27.5-27.7-12.5-53.8-28.5-78.1-46.8q-6.9-5.1-13.7-10.6 0 0 0 0 0.1 0 0.1-0.1 0 0 0 0 0-0.1 0-0.2c12.3-0.3 24.4-0.3 36.1-0.2 34 0.2 67.3 9.6 99.9 19.5 45.1 13.7 89.9 28.6 134.3 44.7q3.4 1.2 6.8 2.5 0 0.2 0 0.3z"/>
							</g>
							<g id="&lt;Group&gt;">
								<path id="&lt;Compound Path&gt;" fill-rule="evenodd" class="s3" d="m157.2 557.7q-1.1 0-2.1 0c-12.1-0.7-24.2-6.8-32.3-16.6-5.7-6.8-9.1-14.9-9.8-22.8-0.6-6.4 0.7-12.7 3.5-18.1-26.6-0.6-51.9-14.7-65.8-37-15.2-24.2-16.3-56.4-3-81.9 12.2-23.3 36.3-40.3 62.5-44.5-15.9-23.4-13.6-47.7-8.6-64.5 10-33.7 40.1-65 73.2-76 34.5-11.5 67-11.5 96.6 0.1 10.5 4.1 26 11.8 39.9 25.4l0.2 0.2c6.3 6.1 12.9 11.8 19.2 17 12.4-0.3 24.4-0.3 35.4-0.2 34.2 0.2 67.3 9.4 100.9 19.6 45 13.7 90.3 28.8 134.5 44.8l1.7 0.6q2.1 0.8 4.2 1.5c43.5-20.1 104.4-41.1 142.6-0.9 29.4 30.9 7.9 68.6-5.7 84 29.5 23 46.5 63.5 39.8 95.8-4 19.2-11.6 34.5-22.6 45.5-10.1 10.1-27.8 17.4-47.2 19.5-19.8 2.1-38-1.3-49.9-9.4-0.9-0.6-1.5-1.6-1.6-2.7 0-1.1 0.4-2.1 1.1-2.8 14.8-13.6 23.5-32.3 23.4-50 0-19.2-11.4-37.8-27.7-45.3-1.7-0.8-2.5-2.7-1.8-4.4 12.7-35.4 15-74.7 6.4-108.4-19.5-0.7-38.3-6.7-56.5-13.3q-2.5 1.2-5.1 2.5c-10.8 5.1-22 10.5-34 13.4-11.6 2.8-24.2 3.5-40.9 2.4-35.6-2.4-71.8-11.8-107.4-27.8-26.8-12.1-53.3-27.9-78.8-47.2-4-3-8.5-6.4-13.2-10.1-20.5 0.5-41.8 2.2-61.3 6.5-35.4 8-59.1 23.7-72.3 48.1-15.8 29.1-14.7 89.4-5.6 131.3 0.4 1.6-0.4 3.2-1.8 3.9-16.8 8.8-29.6 27.8-29.6 44.1 0 25.7 17.2 42.8 28.5 54.1q2.3 2.3 4.2 4.2c1.2 1.3 1.3 3.3 0.2 4.7-7 8.8-20.5 14.7-33.4 14.7zm-34-64.6c1.3 0 2.6 0.8 3.1 2 0.7 1.3 0.5 2.8-0.5 3.8-4.2 4.8-6.4 11.8-5.8 18.8 0.6 6.5 3.5 13.2 8.2 18.9 6.8 8.3 17 13.5 27.2 14 10.1 0.5 21.1-3.5 27.6-9.7q-0.9-0.9-1.8-1.8c-12.1-12.1-30.5-30.5-30.5-59.1 0-20.3 15.6-39.9 31-49-8.9-43.1-9.5-103.7 6.8-133.7 14.3-26.3 39.4-43.1 76.9-51.5 17.5-4 36.4-5.7 54.7-6.5-4.5-3.9-9.1-8-13.5-12.2l-0.2-0.3c-12-11.7-56.8-48-129.4-23.9-31.1 10.4-59.3 39.7-68.7 71.4-4.9 16.4-6.9 40.5 11 63.1 0.8 1 1 2.4 0.5 3.5-0.5 1.2-1.6 2.1-2.9 2.2-26.2 2.1-50.9 18.4-62.9 41.4-12.3 23.4-11.2 52.8 2.6 75 13.8 22 39.9 35.2 66.4 33.6q0.1 0 0.2 0zm548.9 43.1c23.2 12.1 66.2 6.7 84.4-11.5 10.1-10 17-24.1 20.7-41.9 6.4-30.9-10.8-70.1-40.2-91.1-0.8-0.6-1.3-1.5-1.4-2.6-0.1-1 0.3-2 1-2.8 4.8-4.7 14-16.5 18.5-30.7 5.7-17.7 2.2-33.3-10.2-46.3-33.3-35-87.1-18.8-128-0.6 16.4 5.6 33.1 10.4 50.1 10.5 1.5 0.1 2.9 1.1 3.3 2.6 9.5 34.7 7.7 75.4-4.9 112.2 17.1 9.4 28.9 29.6 29 50.3 0 18.5-8 37.2-22.3 51.9zm-332.7-290.4q3.3 2.6 6.3 4.8c25.1 18.9 51.2 34.5 77.5 46.4 34.9 15.7 70.2 24.8 105 27.2 16 1 27.9 0.3 38.7-2.3 10.9-2.6 21.4-7.5 31.5-12.3-43.9-15.9-88.8-30.9-133.5-44.4-33.1-10.1-65.5-19.2-98.8-19.4-8.4 0-17.4-0.1-26.7 0z"/>
							</g>
						</g>
					</g>
					<g id="&lt;Group&gt;">
						<path id="&lt;Path&gt;" class="s3" d="m422.4 527.6c-12.3 0-24.6-2.5-35.9-7.4-1.6-0.7-2.3-2.5-1.6-4 0.7-1.5 2.4-2.2 4-1.6 25 10.9 54.9 8.8 78.1-5.6 1.4-0.8 3.3-0.4 4.2 1 0.9 1.4 0.4 3.3-1 4.2-14.3 8.8-31 13.4-47.8 13.4z"/>
					</g>
					<g id="&lt;Group&gt;">
						<path id="&lt;Path&gt;" class="s3" d="m384.2 525.6q-0.6 0-1.1-0.2c-1.5-0.6-2.3-2.4-1.7-3.9 2.1-5.5 6.1-10.1 11.2-13.1 1.5-0.8 3.3-0.3 4.1 1.1 0.9 1.5 0.4 3.3-1.1 4.2-3.9 2.2-6.9 5.8-8.6 10-0.5 1.2-1.6 1.9-2.8 1.9z"/>
					</g>
					<g id="&lt;Group&gt;">
						<path id="&lt;Path&gt;" class="s3" d="m472.4 521.9c-1.6 0-2.9-1.2-3-2.9-0.2-4.3-3-8.6-6.9-10.7-1.4-0.7-2-2.6-1.3-4 0.8-1.5 2.6-2.1 4.1-1.3 5.8 3 9.8 9.2 10.2 15.7 0 1.7-1.2 3.1-2.9 3.2q-0.1 0-0.2 0z"/>
					</g>
				</g>
				<g id="&lt;Group&gt;">
					<path id="&lt;Compound Path&gt;" fill-rule="evenodd" class="s20" d="m463 725.3q-0.4 4.3-0.8 8.6c-1.1 10.7-2.6 23.1-13 28.7-4.1 2.2-8.6 3.2-13.2 3.8-8 1-18 1.1-25.1-3.3-6.2-3.9-10-10.5-11.7-17.5-2.2-8.9-0.3-18.7 0.4-27.7q0-0.2 0-0.3c-0.2-0.9 0.3-1.9 1.4-1.7 10.3 1.3 20.6 1.5 30.9 1.6 5.8 0 11.5 0.3 17.2 0.3q4.3 0.1 8.6-0.1c2.1 0 4.5-0.8 5.5 0.3 1.3 1.2 0 5.7-0.2 7.3zm-3.4 3.3c0.2-1.4 0.4-2.8 0.6-4.3 0.1-0.8 0.5-2.1 0.2-2.9-0.3-0.9 0.1-0.4-1-0.7-1.1-0.4-3 0-4.2 0-5.9 0-11.7 0-17.5 0-11.8 0-23.6-0.3-35.3-1.7q-0.5 7.2-1 14.3c-0.3 4.6-0.2 9 1.2 13.4 1.7 5.8 5.6 12.4 11.3 14.9 5.1 2.2 11.4 2.6 16.8 2.4 4.3-0.1 8.6-1 12.6-2.1 5.6-1.4 9.7-5 12.1-10.2 2-4.2 2.7-8.8 3.2-13.4 0.2-2 0.4-3.9 0.6-5.9q0.2-1.9 0.4-3.8z"/>
				</g>
				<g id="&lt;Group&gt;">
					<g id="&lt;Group&gt;">
						<path id="&lt;Path&gt;" class="s4" d="m403.1 751.2c-0.7 0.6-1.6 0.7-2.5 0.5-0.8-0.1-1.6-0.6-2.3-1-2.3-1.4-4.4-3-6.2-5 2.2 3 2.9 7.5 3.2 11.1 0.1 0.8 0.1 1.6-0.1 2.3-0.3 0.8-0.8 1.5-1.5 1.7-0.8 0.4-1.7 0.1-2.4-0.3-0.7-0.5-1.3-1.2-1.7-1.9-1.6-2.4-2.8-5-3.6-7.8 0.9 3.4-0.1 7.7-2 10.7-0.3 0.5-0.7 1-1.2 1.3-0.5 0.4-1.1 0.5-1.7 0.2-0.9-0.5-1-1.7-0.9-2.8 0.1-2.9-1.1-6.4-1-9.3-3 0.4-7 0.7-11.7 0.8l12.1-29.2q3.8 1.9 7.5 3.8c2.3-1.8 4.5-3.5 6.7-5.3 0.7-0.5 1.4-1 2.2-1.3 0.8-0.3 1.8-0.4 2.5 0.1 0.8 0.6 1.1 1.6 1 2.6-0.1 1-0.6 1.8-1.2 2.6-1.3 1.9-2.9 3.6-4.8 4.9 3.8 0.3 7.3 4.3 9.6 7.4 0.4 0.6 0.8 1.3 0.9 2 0.2 0.8 0 1.6-0.6 2.1-0.9 0.6-2.1 0.3-3.1 0q-3.4-1-6.7-2.1c3 1.3 5.8 3.5 8.1 5.8 0.9 0.8 1.7 1.7 2.1 2.8 0.4 1.1 0.2 2.5-0.7 3.3z"/>
					</g>
					<g id="&lt;Group&gt;">
						<path id="&lt;Compound Path&gt;" fill-rule="evenodd" class="s3" d="m381.8 766.1q-1.1 0-2-0.5c-1.3-0.6-2.8-2.1-2.6-5.5 0.1-1.2-0.1-2.6-0.4-4q-0.2-1-0.3-1.9c-2.7 0.2-5.7 0.4-9 0.4q0 0 0 0c-1 0-1.9-0.5-2.5-1.3-0.5-0.8-0.6-1.8-0.2-2.8l12-29.1c0.4-0.8 1-1.4 1.7-1.7 0.8-0.3 1.6-0.2 2.4 0.1 2.2 1.1 4.1 2.1 5.9 3q0.9-0.7 1.9-1.5 1.6-1.3 3.3-2.6c0.8-0.6 1.7-1.3 3-1.8 1.8-0.7 3.7-0.5 5.1 0.5 1.7 1.1 2.6 3.2 2.3 5.4-0.2 1.6-1 2.9-1.6 3.9q-0.8 1.2-1.8 2.3 3.2 2.1 6.5 6.5c0.5 0.8 1.2 1.9 1.5 3.3 0.3 1.9-0.4 3.8-1.8 4.9q-0.2 0.1-0.4 0.3c0.7 0.8 1.4 1.8 1.8 3 0.8 2.4 0.2 5-1.6 6.5-1.3 1-3.1 1.5-4.9 1.1-0.8-0.1-1.5-0.4-2.2-0.7q0.2 1.4 0.3 2.6c0.1 1 0.2 2.2-0.2 3.5-0.5 1.7-1.7 3-3.2 3.6-1.7 0.6-3.6 0.4-5.2-0.7-0.8-0.6-1.4-1.2-2-1.9q-0.4 1.1-1.1 2c-0.4 0.8-1 1.7-2.1 2.3-0.8 0.5-1.7 0.8-2.6 0.8zm4.2-18.3c1.4 0 2.5 0.9 2.9 2.2 0.6 2.5 1.7 4.8 3.1 6.9 0.1 0.2 0.2 0.4 0.4 0.6q0-0.3 0-0.4c-0.3-3-0.9-7.1-2.7-9.6-0.9-1.2-0.7-3 0.5-4 1.2-1 2.9-0.9 4 0.2 1.7 1.7 3.5 3.2 5.6 4.5 0.4 0.2 0.8 0.4 1.2 0.6-0.3-0.5-0.8-1.1-1.3-1.6-2.7-2.6-5-4.2-7.3-5.2-1.4-0.6-2.1-2.3-1.5-3.7 0.5-1.5 2.1-2.3 3.6-1.8l5.6 1.8c-3.4-4.5-5.7-5.4-6.8-5.4-1.3-0.1-2.3-1-2.7-2.2-0.3-1.2 0.2-2.5 1.2-3.2q2.4-1.7 4.1-4.1 0.1-0.2 0.2-0.4-0.2 0.2-0.4 0.3-1.7 1.4-3.4 2.7-1.7 1.3-3.4 2.6c-0.9 0.7-2.1 0.9-3.2 0.3-1.4-0.7-2.9-1.5-4.6-2.4l-9.1 22.1c2.5-0.1 4.8-0.3 6.8-0.6 0.9-0.2 1.8 0.1 2.4 0.7 0.7 0.6 1 1.5 1 2.3-0.1 1.2 0.2 2.6 0.4 4q0.2 0.9 0.3 1.8c0.5-1.8 0.7-3.8 0.3-5.3-0.4-1.5 0.5-3.2 2.1-3.6q0.4-0.1 0.7-0.1z"/>
					</g>
				</g>
				<g id="&lt;Group&gt;">
					<g id="&lt;Group&gt;">
						<path id="&lt;Path&gt;" class="s4" d="m459.5 746c0.5-1.1 1.5-1.9 2.4-2.6 2.7-1.9 5.7-3.7 8.8-4.6q-3.4 0.6-6.8 1.2c-1.1 0.2-2.4 0.3-3.1-0.5-0.5-0.5-0.6-1.4-0.4-2.1 0.2-0.7 0.7-1.3 1.2-1.9 2.7-2.7 6.7-6.2 10.5-6-1.7-1.5-3.1-3.4-4.1-5.5-0.5-0.9-0.8-1.8-0.8-2.7 0-1 0.4-2 1.3-2.5 0.8-0.3 1.7-0.2 2.5 0.2 0.7 0.4 1.3 1 1.9 1.7 2 2 4 4 6 6.1q3.9-1.4 8-2.8l8.1 30.5c-4.7-0.7-8.6-1.5-11.5-2.3-0.3 2.9-2 6.2-2.2 9.1-0.1 1.1-0.3 2.3-1.3 2.7-0.6 0.1-1.3-0.1-1.7-0.5-0.5-0.3-0.8-0.9-1-1.4-1.5-3.3-1.9-7.6-0.6-10.9-1.1 2.6-2.6 5.1-4.5 7.2-0.6 0.7-1.2 1.3-2 1.7-0.7 0.3-1.7 0.4-2.4 0-0.7-0.3-1.1-1.1-1.2-1.9-0.2-0.7 0-1.5 0.1-2.3 0.9-3.5 2.1-7.9 4.7-10.5-2.1 1.6-4.4 3-6.8 4.1-0.8 0.3-1.6 0.6-2.5 0.7-0.8 0-1.8-0.2-2.4-0.9-0.7-0.9-0.7-2.3-0.2-3.3z"/>
					</g>
					<g id="&lt;Group&gt;">
						<path id="&lt;Compound Path&gt;" fill-rule="evenodd" class="s3" d="m479.5 767c-1.1 0-2.2-0.4-3.1-1.2-1-0.8-1.5-1.8-1.8-2.5q-0.5-1.1-0.8-2.2c-0.6 0.6-1.3 1.2-2.2 1.6-1.8 0.9-3.7 0.9-5.2 0-1.5-0.8-2.5-2.2-2.7-4-0.3-1.3-0.1-2.5 0.2-3.5q0.2-1.2 0.6-2.5c-0.7 0.2-1.4 0.4-2.2 0.4-1.9 0.1-3.6-0.5-4.7-1.8-1.6-1.7-1.9-4.4-0.8-6.6 0.6-1.2 1.4-2 2.3-2.8q-0.2-0.1-0.4-0.3c-1.3-1.3-1.7-3.2-1.1-5.1 0.4-1.3 1.3-2.4 1.9-3q3.8-4 7.3-5.7-0.8-1.2-1.5-2.5c-0.5-1-1.1-2.4-1.1-4.1 0-2.1 1.2-4.1 3-5 1.5-0.8 3.5-0.7 5.2 0.2 1.1 0.6 2 1.5 2.7 2.2q1.5 1.5 2.9 3.1 0.9 0.8 1.7 1.7c1.9-0.7 3.9-1.4 6.2-2.2 0.8-0.3 1.7-0.2 2.4 0.2 0.7 0.4 1.2 1 1.5 1.8l8 30.6c0.3 0.9 0.1 1.9-0.6 2.7-0.7 0.7-1.6 1.1-2.6 0.9-3.3-0.4-6.3-1-8.9-1.6q-0.2 0.9-0.5 1.8c-0.5 1.5-0.9 2.8-1 3.9-0.2 3.5-1.9 4.8-3.2 5.2q-0.7 0.3-1.5 0.3zm-2.8-18.8q0.6 0 1.1 0.3c1.5 0.6 2.3 2.3 1.6 3.8-0.5 1.4-0.7 3.4-0.4 5.3q0.3-0.9 0.5-1.7c0.5-1.5 0.9-2.8 1-3.9 0.1-0.9 0.5-1.7 1.3-2.2 0.7-0.6 1.6-0.7 2.5-0.5 1.9 0.6 4.1 1.1 6.7 1.6l-6.1-23.1c-1.9 0.6-3.5 1.2-5 1.8-1.1 0.3-2.3 0.1-3.1-0.8q-1.5-1.5-3-3-1.5-1.5-3-3.1-0.2-0.2-0.4-0.4 0.1 0.3 0.2 0.4c0.9 1.7 2.1 3.3 3.5 4.6 0.9 0.9 1.2 2.2 0.7 3.4-0.4 1.1-1.6 1.8-2.9 1.8-1.1-0.1-3.5 0.4-7.5 4.4l5.8-1c1.6-0.3 3.1 0.7 3.4 2.2 0.4 1.6-0.5 3.1-2 3.5-2.4 0.7-4.9 2-8 4.2-0.5 0.4-1.1 0.9-1.4 1.4 0.4-0.1 0.8-0.3 1.3-0.5 2.1-0.9 4.2-2.1 6.1-3.6 1.2-1 3-0.8 4 0.3 1 1.2 1 2.9-0.1 4-2.1 2.2-3.2 6.3-3.9 9.2q0 0.1-0.1 0.4c0.2-0.2 0.4-0.4 0.5-0.5 1.7-1.9 3-4.1 4-6.4 0.5-1.2 1.6-1.9 2.7-1.9zm-14.6-0.6zm-2.6-1.6z"/>
					</g>
				</g>
				<g id="&lt;Group&gt;">
					<g id="&lt;Group&gt;">
						<path id="&lt;Path&gt;" class="s8" d="m550.5 722.6c-2 8.5-6.6 15.4-12.6 21q-2.3 2.1-4.8 3.9c-7.7 5.7-16.9 9.8-25.7 12.5q-2.9 0.9-5.8 1.7c-5.2 1.3-10.2 2.2-14.4 2.7-4.4-14.7-7.2-29.7-7.6-45q1.5-4.1 2.4-8.4 1-4.4 1.5-8.9 0-0.5 0.1-1 0.2-2.5 0.4-5 0.2-5.4 0-10.7-0.1-3.2-0.3-6.4-0.1-3-0.3-5.9-0.2-4.8-0.3-9.5 0-2.4 0.1-4.7 0-2.9 0-5.9c-0.1-2.4-0.2-4.8-0.4-7.3q5 2.9 9.7 6.3 3.4 2.4 6.7 5c6.7 5.3 12.8 11 18.3 16.9q2.8 2.9 5.4 5.9c3.9 4.4 7.4 8.7 10.5 12.9q2.1 2.8 3.9 5.5c3.4 4.8 6.1 9.2 8.2 12.9 2.3 4 3.8 7.2 4.5 9.2q0 0 0 0 0.6 1.7 0.5 2.3z"/>
					</g>
					<g id="&lt;Group&gt;">
						<g id="&lt;Group&gt;">
							<path id="&lt;Path&gt;" class="s9" d="m483.2 658.9q0-2.9 0-5.9 4.6-0.5 9.3-1 3.4 2.4 6.7 5-8 1.1-16 1.9z"/>
						</g>
						<g id="&lt;Group&gt;">
							<path id="&lt;Path&gt;" class="s9" d="m537.3 698.2c-5.6 0.6-11.3 1.2-17 1.8-10.2 1-20.5 1.6-30.8 1.9q-3 0.1-6 0.2 0-0.5 0.1-1 0.2-2.5 0.4-5c15-0.3 29.9-1.3 44.8-2.9q2.3-0.3 4.6-0.5 2.1 2.8 3.9 5.5z"/>
						</g>
						<g id="&lt;Group&gt;">
							<path id="&lt;Path&gt;" class="s9" d="m522.9 679.8c-9.3 0-18.7-0.2-28-0.6q-5.6-0.1-11.2-0.2-0.1-3-0.3-5.9 5.7 0.1 11.5 0.2c7.5 0.3 15.1 0.5 22.6 0.6q2.8 2.9 5.4 5.9z"/>
						</g>
						<g id="&lt;Group&gt;">
							<path id="&lt;Path&gt;" class="s9" d="m539.1 714.6c-8.9-3.7-18.3-5-27.7-5.2 6.6 4 12.1 9.5 16.7 15.7 4.2 5.7 7.3 12 9.8 18.5q-2.3 2.1-4.8 3.9c-2.9-8.3-7-16-12.9-22.8-5.7-6.7-12.8-11.9-21.2-14.6q-0.7-0.2-1.3-0.4-2.3 0.2-4.6 0.4 1.3 1.4 2.3 2.8c5 6.4 7.2 15.3 8.9 23.1 1.7 7.9 2.6 16 3.1 24q-2.9 0.9-5.8 1.7c-0.3-6.4-0.9-12.7-2-18.9-1.3-7.7-3.1-16.2-6.8-23.1-1.5-2.9-4.1-6.3-7.1-9q-1.9 0.1-3.7 0.3 1-4.4 1.5-8.9 0-0.5 0.1-1 2.9 0.4 5.9 0.8c2.9 0.5 5.8 1.1 8.6 1.9q0.5-0.1 0.9-0.1c16.2-1 32 0.5 46.5 7.4 2.3 4 3.8 7.2 4.5 9.2q-5.2-3.3-10.9-5.7z"/>
						</g>
					</g>
					<g id="&lt;Group&gt;">
						<path id="&lt;Compound Path&gt;" fill-rule="evenodd" class="s3" d="m487.2 767.7c-1.5 0-2.8-0.9-3.2-2.4-5.2-17.1-7.8-33.8-7.8-49.6 0-1.3 0.7-2.5 1.9-3.1q1.3-0.6 2.7-1.3l-1.4-65.6c-0.1-1.2 0.6-2.3 1.6-3 1.1-0.6 2.4-0.6 3.4 0 23.1 13.6 40.5 33.2 51.1 47.2 8.3 11 19.4 28.7 18.3 33.5-6.5 27.6-39.7 41.1-66.2 44.3q-0.2 0-0.4 0zm-4.3-49.9c0.3 13.7 2.5 28.1 6.7 42.8 11.7-1.8 50.5-9.9 57.5-38.3-1.2-5.3-23.1-46-60.9-70.5l1.3 56.7c10-3.9 22-7.4 32.5-7.9 1.9-0.1 3.5 1.3 3.6 3.1 0.1 1.9-1.4 3.5-3.2 3.6-12.4 0.6-27.1 5.7-37.5 10.5z"/>
					</g>
				</g>
				<g id="&lt;Group&gt;">
					<g id="&lt;Group&gt;">
						<path id="&lt;Path&gt;" class="s8" d="m384.2 719.8c-1.9 17.1-3.5 32.5-8.6 49-4-0.7-8.5-1.8-13.4-3.2q-2.8-0.8-5.7-1.7c-11.4-3.6-23.6-8.8-32.7-15.9q-2.4-1.8-4.5-3.8c-5.7-5.6-9.4-12.3-9.7-20-0.1-1.9 0.7-4.8 2.3-8.3q1.4-3.2 3.7-7c3.1-5.4 7.4-11.6 12.7-18.1q2.1-2.5 4.4-5.2c3-3.4 6.3-6.9 9.8-10.4q2.6-2.5 5.4-5.1c4.3-3.9 8.9-7.8 13.7-11.5q3.3-2.5 6.6-4.8c4.9-3.4 10.1-6.5 15.4-9.3q-0.4 5.5-0.6 11.1-0.2 2.9-0.3 5.8-0.2 5.8-0.4 11.5-0.1 3-0.2 5.9-0.2 4.3-0.4 8.6-0.1 2.7-0.2 5.4-0.1 3 0 5.9 0 3 0.2 6c0.4 4.6 1 9.2 2.1 13.6q0.2 0.8 0.4 1.5z"/>
					</g>
					<g id="&lt;Group&gt;">
						<g id="&lt;Group&gt;">
							<path id="&lt;Path&gt;" class="s9" d="m368.2 653.8c4.9 0.8 9.8 1.4 14.8 1.8q-0.2 2.9-0.3 5.8c-7.1-0.5-14.1-1.3-21.1-2.8q3.3-2.5 6.6-4.8z"/>
						</g>
						<g id="&lt;Group&gt;">
							<path id="&lt;Path&gt;" class="s9" d="m381.5 692.8q-0.1 3 0 5.9-10.9-0.9-21.6-2.4c-10.4-1.4-21.2-2.8-31.6-5.5q2.1-2.5 4.4-5.2c3.3 0.8 6.6 1.4 9.9 2 9.7 1.8 19.5 3.2 29.4 4.3q4.7 0.5 9.5 0.9z"/>
						</g>
						<g id="&lt;Group&gt;">
							<path id="&lt;Path&gt;" class="s9" d="m347.9 670.1c11.4 1.7 22.9 2.4 34.4 2.8q-0.1 3-0.2 5.9-0.4 0-0.8 0c-13-0.5-26-1.3-38.8-3.6q2.6-2.5 5.4-5.1z"/>
						</g>
						<g id="&lt;Group&gt;">
							<path id="&lt;Path&gt;" class="s9" d="m381.7 704.7c0.4 4.6 1 9.2 2.1 13.6-1 1.2-1.8 2.5-2.7 3.7-3.5 5-6.6 10.3-9.3 15.8-4.4 8.9-7.5 18.2-9.6 27.8q-2.8-0.8-5.7-1.7c2.6-11.7 6.7-23 12.5-33.5 3-5.6 6.7-12.2 11.4-17.3-9.1 3.6-17.9 7.8-26.3 12.3-11.3 6-21.9 13.2-30.3 22.6q-2.4-1.8-4.5-3.8c10.3-11.5 23.5-19.9 37.3-26.7 5.1-2.5 10.3-5 15.6-7.2-20.4-0.6-40.7 0.2-60.3 5.6q1.4-3.2 3.7-7c16.6-4 33.8-4.9 50.9-4.7q7.6 0.2 15.2 0.5z"/>
						</g>
					</g>
					<g id="&lt;Group&gt;">
						<path id="&lt;Compound Path&gt;" fill-rule="evenodd" class="s3" d="m375.6 772.2q-0.3 0-0.7-0.1c-15.8-3.1-67.4-15.9-68.7-47.8-0.5-13.9 33.2-60 75.2-82.5 1.1-0.6 2.3-0.5 3.4 0.1 1 0.6 1.6 1.8 1.6 3l-2.2 68.8q1 0.5 1.9 1.1c1.2 0.6 1.8 1.9 1.7 3.3l-0.3 2.5c-1.8 16.7-3.6 32.5-8.7 49.2-0.4 1.5-1.8 2.4-3.2 2.4zm3.8-121.6c-22.1 13.1-38.6 30.6-46.7 40.3-14.7 17.4-19.9 29.6-19.8 33.2 1.1 25.5 45.5 37.5 60.3 40.8 4.3-15 5.9-29 7.6-45l0.1-0.3c-11.5-6.2-29.5-13.5-37.1-16.5-1.7-0.7-2.5-2.6-1.8-4.4 0.6-1.7 2.6-2.5 4.3-1.8 7.8 3 20.7 8.3 31.2 13.4z"/>
					</g>
				</g>
			</g>
		</g>
	</g>
</svg>